<svg xmlns="http://www.w3.org/2000/svg" width="188" height="28" fill="none"><path fill="#001A3A" d="M78.1 16.555c-.383 1.03-1.34 1.602-2.52 1.602a3.174 3.174 0 1 1 0-6.347c1.18 0 2.107.504 2.52 1.603h3.237c-.536-2.816-2.878-4.624-5.758-4.624a6.196 6.196 0 1 0 0 12.39c2.88 0 5.369-2.023 5.758-4.624H78.1ZM64.767 9.1h3.371v11.86h-3.37V9.1ZM68.477 6.234a2.035 2.035 0 1 1-4.069 0 2.035 2.035 0 0 1 4.07 0ZM55.112 10.552c.566-1.02 1.85-1.717 3.7-1.717 2.99 0 4.573 1.903 4.573 4.728v7.396h-3.37v-7.043c0-1.383-.617-2.335-2.107-2.335-1.634 0-2.539 1.001-2.539 2.58v6.788H52V9.099h3.113v1.453Z"></path><path fill="#001A3A" fill-rule="evenodd" d="M44.711 18.157a3.174 3.174 0 1 0 .001-6.347 3.174 3.174 0 0 0 0 6.347Zm0 3.021a6.196 6.196 0 1 0 0-12.388 6.196 6.196 0 1 0 0 12.388Z" clip-rule="evenodd"></path><path fill="#001A3A" d="M33.96 9.1h3.37v11.86h-3.37V9.1ZM37.67 6.234a2.034 2.034 0 1 1-4.07 0 2.034 2.034 0 0 1 4.07 0Z"></path><path fill="#176BFF" d="M3.36 14C3.36 8.124 8.124 3.36 14 3.36c2.366 0 4.55.77 6.317 2.077a4.01 4.01 0 0 1 2.547-2.274A13.948 13.948 0 0 0 14 0C6.268 0 0 6.268 0 14s6.268 14 14 14 14-6.268 14-14c0-1.618-.275-3.175-.782-4.624a3.995 3.995 0 0 1-3.008 1.618c.28.952.43 1.96.43 3.006 0 5.876-4.764 10.64-10.64 10.64S3.36 19.876 3.36 14Z"></path><path fill="#176BFF" d="M27.712 11.164a13.91 13.91 0 0 0-.494-1.788 3.995 3.995 0 0 1-3.008 1.618 10.6 10.6 0 0 1 .392 2.098 4.374 4.374 0 0 0 3.11-1.928ZM14 20.125A6.132 6.132 0 0 0 20.125 14 6.132 6.132 0 0 0 14 7.875 6.132 6.132 0 0 0 7.875 14 6.135 6.135 0 0 0 14 20.125ZM23.188 8.75a3.062 3.062 0 1 0 0-6.125 3.062 3.062 0 0 0 0 6.125Z"></path><path fill="#556170" d="M85.701 20.961h1.488V10.383h2.886v-1.26H87.19V7.647c0-1.42.67-2.18 2.08-2.18.352 0 .681.022.92.067V4.31a5.636 5.636 0 0 0-1.205-.114c-2.124 0-3.283 1.147-3.283 3.419v1.508h-2.033v1.26H85.7v10.58ZM97.092 9.03s-.28-.024-.396-.024c-2.187 0-3.35 1.14-3.792 1.954V9.122h-1.582v11.84h1.651v-6.723c0-2.465 1.513-3.675 3.537-3.675.303 0 .582.024.582.024V9.029ZM108.353 9.122h-1.582v2.187c-.815-1.512-2.327-2.466-4.491-2.466-3.63 0-5.584 2.954-5.584 6.21 0 3.257 1.954 6.187 5.584 6.187 2.164 0 3.676-.953 4.491-2.465v2.186h1.582V9.122Zm-9.982 5.931c0-2.581 1.582-4.721 4.235-4.721 2.652 0 4.165 2.14 4.165 4.721 0 2.582-1.513 4.699-4.165 4.699-2.653 0-4.235-2.117-4.235-4.699ZM119.611 14.053c0-2.512 1.536-3.768 3.397-3.768 2.071 0 2.955 1.442 2.955 3.443v7.233h1.652v-7.559c0-2.512-1.442-4.559-4.328-4.559-2.117 0-3.513 1.14-4.164 2.28-.629-1.373-1.932-2.28-3.863-2.28-2.303 0-3.327 1.326-3.746 2.094V9.122h-1.582v11.84h1.652v-7.048c0-2.28 1.466-3.629 3.397-3.629 2.071 0 2.978 1.373 2.978 3.443v7.233h1.652v-6.908ZM140.112 15.519s.024-.373.024-.628c0-3.35-2.164-6.048-5.701-6.048-3.56 0-5.817 2.908-5.817 6.187 0 3.326 2.094 6.21 5.841 6.21 2.815 0 4.769-1.72 5.467-3.977h-1.721c-.512 1.442-1.908 2.489-3.723 2.489-2.49 0-4.049-1.838-4.212-4.233h9.842Zm-5.677-5.187c2.327 0 3.839 1.558 4.049 3.838h-8.167c.279-2.187 1.815-3.838 4.118-3.838ZM151.94 20.961h1.721l4.142-11.839h-1.745l-3.234 9.886-3.211-9.886h-1.722l-3.257 9.886-3.188-9.886h-1.768l4.095 11.84h1.721l3.235-9.746h.023l3.188 9.745ZM163.539 21.24c3.746 0 6.049-2.93 6.049-6.187 0-3.256-2.303-6.21-6.049-6.21-3.723 0-6.026 2.954-6.026 6.21 0 3.257 2.303 6.187 6.026 6.187Zm-4.351-6.187c0-2.674 1.722-4.721 4.351-4.721 2.652 0 4.374 2.047 4.374 4.721 0 2.652-1.722 4.699-4.374 4.699-2.629 0-4.351-2.047-4.351-4.699ZM176.899 9.03s-.28-.024-.396-.024c-2.187 0-3.35 1.14-3.793 1.954V9.122h-1.582v11.84h1.652v-6.723c0-2.465 1.513-3.675 3.537-3.675.302 0 .582.024.582.024V9.029ZM179.291 14.454h-.137l.195-9.896h-1.489l-.194 16.403h1.488v-4.747l1.386-1.283 4.931 6.03h1.909l-5.715-6.984 5.465-5.247h-1.863l-5.976 5.724Z"></path></svg>