<svg xmlns="http://www.w3.org/2000/svg" width="168.243" height="98" viewBox="0 0 168.243 98">
  <g id="Group_978" data-name="Group 978" transform="translate(-306 -172)">
    <path id="Path_2121" data-name="Path 2121" d="M27.06,0h6.468V-10.791c0-4.851-2.8-7.887-7.491-7.887a7.431,7.431,0,0,0-6.171,3.4,6.784,6.784,0,0,0-6.171-3.4,6.38,6.38,0,0,0-5.379,2.607v-2.442H1.848V0H8.316V-9.933a2.856,2.856,0,0,1,3.1-3.135,2.838,2.838,0,0,1,3.036,3.135V0h6.468V-9.933a2.846,2.846,0,0,1,3.069-3.135A2.862,2.862,0,0,1,27.06-9.933ZM36-9.273c0,5.907,3.5,9.5,7.887,9.5a6.007,6.007,0,0,0,5.445-2.805V0H55.8V-18.513H49.335v2.574a5.969,5.969,0,0,0-5.445-2.805C39.5-18.744,36-15.18,36-9.273Zm13.332,0c0,2.508-1.551,3.861-3.366,3.861C44.121-5.412,42.6-6.8,42.6-9.273c0-2.508,1.518-3.828,3.366-3.828C47.784-13.1,49.335-11.748,49.335-9.273Zm9.108.1c0,5.61,3.828,9.405,8.283,9.405a6.324,6.324,0,0,0,5.049-2.409V8.844h6.468V-18.513H71.775v1.881a6.3,6.3,0,0,0-5.016-2.046C62.271-18.678,58.443-14.784,58.443-9.174Zm13.332-.1c0,2.739-1.881,3.861-3.366,3.861-1.518,0-3.366-1.023-3.366-3.762s1.848-3.894,3.366-3.894A3.448,3.448,0,0,1,71.775-9.273Z" transform="translate(396 228)" fill="#fff"/>
    <g id="Group_972" data-name="Group 972">
      <rect id="Rectangle_548" data-name="Rectangle 548" width="90" height="98" rx="1" transform="translate(306 172)" fill="#fff"/>
      <path id="Path_2122" data-name="Path 2122" d="M40.624,0H35.262V-23.807h5.362ZM63.1-.847A15.7,15.7,0,0,1,56.3.415q-5.479,0-8.616-3.221a11.773,11.773,0,0,1-3.138-8.583,12.578,12.578,0,0,1,3.528-9.264,12.34,12.34,0,0,1,9.156-3.553,17.123,17.123,0,0,1,5.877.88v5.163a10.414,10.414,0,0,0-5.445-1.428,7.224,7.224,0,0,0-5.412,2.108,7.823,7.823,0,0,0-2.059,5.711,7.673,7.673,0,0,0,1.942,5.5,6.862,6.862,0,0,0,5.229,2.05A11.154,11.154,0,0,0,63.1-5.744ZM87.042,0H80.269L73.329-10.343a9.913,9.913,0,0,1-.631-1.312h-.083V0H67.253V-23.807h5.362v11.256H72.7q.2-.465.664-1.328l6.574-9.928h6.392l-8.3,11.355Z" transform="translate(307.243 228)" fill="#060606" stroke="#060606" stroke-width="0.5"/>
      <path id="Path_2123" data-name="Path 2123" d="M7.973-23.562q.748,1.253,1.666,3.066t1.87,3.808q.952,1.995,1.887,4.055t1.717,3.808q.782-1.747,1.7-3.808t1.87-4.055q.952-1.995,1.87-3.808t1.666-3.066h3.86q.312,2.506.589,5.324t.5,5.769q.225,2.951.415,5.934t.329,5.819H23.7q-.139-3.989-.329-8.209T22.8-17.1q-.374.758-.884,1.813T20.825-13q-.578,1.236-1.173,2.555T18.5-7.885q-.561,1.236-1.037,2.308t-.816,1.83h-3.2q-.34-.758-.816-1.846T11.594-7.918q-.561-1.236-1.156-2.555T9.265-13.012q-.578-1.22-1.088-2.291t-.884-1.8q-.381,3.956-.572,8.176T6.392-.715H2.176q.139-2.835.329-5.868T2.921-12.6q.225-2.984.5-5.786t.589-5.176Z" transform="translate(309.243 228.27)" fill="#060606" stroke="#060606" stroke-width="1.5"/>
    </g>
    <path id="Path_2119" data-name="Path 2119" d="M3.5-.635A3.75,3.75,0,0,1,2.046-.9a2.354,2.354,0,0,1-.99-.737A1.829,1.829,0,0,1,.672-2.691H1.56a1.5,1.5,0,0,0,.54.984,2.062,2.062,0,0,0,1.4.423,2.091,2.091,0,0,0,1.35-.4,1.251,1.251,0,0,0,.5-1.017,1.136,1.136,0,0,0-.276-.8,1.693,1.693,0,0,0-.684-.451,11.329,11.329,0,0,0-1.128-.324A10.5,10.5,0,0,1,1.932-4.68a2.1,2.1,0,0,1-.84-.616A1.714,1.714,0,0,1,.744-6.428,1.772,1.772,0,0,1,1.08-7.489a2.212,2.212,0,0,1,.948-.731,3.518,3.518,0,0,1,1.4-.264,3.108,3.108,0,0,1,1.878.522,1.928,1.928,0,0,1,.822,1.347H5.22a1.368,1.368,0,0,0-.564-.841,2.077,2.077,0,0,0-1.3-.368,2.079,2.079,0,0,0-1.26.368A1.179,1.179,0,0,0,1.6-6.45a1.1,1.1,0,0,0,.276.781,1.764,1.764,0,0,0,.69.451,10.9,10.9,0,0,0,1.122.33A10.779,10.779,0,0,1,5-4.477a2.13,2.13,0,0,1,.852.621A1.7,1.7,0,0,1,6.2-2.734a1.856,1.856,0,0,1-.312,1.022,2.213,2.213,0,0,1-.924.781A3.326,3.326,0,0,1,3.5-.635ZM15.132-8.4V-.712h-.84V-4.307H9.744V-.712H8.9V-8.4h.84v3.452h4.548V-8.4ZM21.9-.635a4.455,4.455,0,0,1-2.112-.5,3.78,3.78,0,0,1-1.494-1.4,3.819,3.819,0,0,1-.546-2.028,3.819,3.819,0,0,1,.546-2.028,3.78,3.78,0,0,1,1.494-1.4,4.455,4.455,0,0,1,2.112-.5,4.481,4.481,0,0,1,2.124.5,3.737,3.737,0,0,1,1.488,1.4,3.852,3.852,0,0,1,.54,2.028,3.852,3.852,0,0,1-.54,2.028,3.737,3.737,0,0,1-1.488,1.4A4.481,4.481,0,0,1,21.9-.635Zm0-.671a3.521,3.521,0,0,0,1.68-.4,2.932,2.932,0,0,0,1.176-1.138,3.357,3.357,0,0,0,.432-1.72,3.327,3.327,0,0,0-.432-1.715A2.943,2.943,0,0,0,23.58-7.407a3.521,3.521,0,0,0-1.68-.4,3.521,3.521,0,0,0-1.68.4,2.943,2.943,0,0,0-1.176,1.132,3.327,3.327,0,0,0-.432,1.715,3.357,3.357,0,0,0,.432,1.72A2.932,2.932,0,0,0,20.22-1.7,3.521,3.521,0,0,0,21.9-1.305ZM34.032-6.186a1.994,1.994,0,0,1-.708,1.594,3.2,3.2,0,0,1-2.124.6H29.508V-.712h-.84V-8.4H31.2a3.206,3.206,0,0,1,2.118.6A2,2,0,0,1,34.032-6.186ZM31.2-4.647q1.968,0,1.968-1.539A1.44,1.44,0,0,0,32.7-7.352a2.307,2.307,0,0,0-1.5-.4H29.508v3.1Z" transform="translate(431 239)" fill="#fff"/>
  </g>
</svg>
