<?xml version="1.0" encoding="utf-8"?>
<!-- Generator: Adobe Illustrator 24.1.3, SVG Export Plug-In . SVG Version: 6.00 Build 0)  -->
<svg version="1.1" id="Calque_1" xmlns="http://www.w3.org/2000/svg" xmlns:xlink="http://www.w3.org/1999/xlink" x="0px" y="0px"
	 viewBox="0 0 283.46 255.12" style="enable-background:new 0 0 283.46 255.12;" xml:space="preserve">
<style type="text/css">
	.st0{fill:none;}
	.st1{fill:#FFFFFF;}
</style>
<g>
	<g>
		<path d="M74.33,137.11v24.21H69.6v-33.43h6.59l5.4,20.01v-20.01h4.68v33.43h-5.4L74.33,137.11z"/>
		<path d="M95.3,141.98h7.21v4.78H95.3v9.79h9.07v4.78H90.04v-33.43h14.33v4.78H95.3V141.98z"/>
		<path d="M123.33,135.58v1.19c0,3.44-1.05,5.64-3.39,6.73c2.82,1.1,3.92,3.63,3.92,7.16v2.72c0,5.16-2.72,7.93-7.98,7.93h-8.26
			v-33.43h7.93C120.99,127.89,123.33,130.42,123.33,135.58z M112.87,132.67v8.84h2.05c1.96,0,3.15-0.86,3.15-3.53v-1.86
			c0-2.39-0.81-3.44-2.67-3.44H112.87z M112.87,146.28v10.27h3.01c1.77,0,2.72-0.81,2.72-3.3v-2.91c0-3.1-1-4.06-3.39-4.06H112.87z"
			/>
		<path d="M132.02,127.89v25.79c0,2.39,1.05,3.25,2.72,3.25c1.67,0,2.72-0.86,2.72-3.25v-25.79h4.97v25.46
			c0,5.35-2.67,8.41-7.83,8.41c-5.16,0-7.83-3.06-7.83-8.41v-25.46H132.02z"/>
		<path d="M146.02,127.89h5.25v28.66h8.64v4.78h-13.9V127.89z"/>
		<path d="M179.21,161.32h-5.3l-0.91-6.07h-6.45l-0.91,6.07h-4.82l5.35-33.43h7.69L179.21,161.32z M167.22,150.72h5.06l-2.53-16.91
			L167.22,150.72z"/>
		<path d="M189.05,127.89h5.25v28.66h8.64v4.78h-13.9V127.89z"/>
		<path d="M204.81,135.91c0-5.35,2.82-8.41,7.98-8.41s7.98,3.06,7.98,8.41v17.38c0,5.35-2.82,8.41-7.98,8.41s-7.98-3.06-7.98-8.41
			V135.91z M210.07,153.63c0,2.39,1.05,3.3,2.72,3.3c1.67,0,2.72-0.91,2.72-3.3v-18.05c0-2.39-1.05-3.3-2.72-3.3
			c-1.67,0-2.72,0.91-2.72,3.3V153.63z"/>
		<path d="M232.04,142.69h7.35v10.6c0,5.35-2.67,8.41-7.83,8.41c-5.16,0-7.83-3.06-7.83-8.41v-17.38c0-5.35,2.67-8.41,7.83-8.41
			c5.16,0,7.83,3.06,7.83,8.41v3.25h-4.97v-3.58c0-2.39-1.05-3.3-2.72-3.3c-1.67,0-2.72,0.91-2.72,3.3v18.05
			c0,2.39,1.05,3.25,2.72,3.25c1.67,0,2.72-0.86,2.72-3.25v-6.16h-2.39V142.69z"/>
		<path d="M242.78,127.89h5.25v33.43h-5.25V127.89z"/>
		<path d="M269.39,127.89l-5.49,16.24l5.87,17.19h-5.54l-4.3-13.23l-4.35,13.23h-4.92l5.87-17.19l-5.49-16.24h5.44l3.96,12.32
			l4.06-12.32H269.39z"/>
	</g>
	<g>
		<g>
			<path d="M128.48,163.16c1.26,0,2.34,0.7,3.23,2.09c0.27,0.52,0.4,0.97,0.4,1.35v0.16c0,0.88-0.62,1.69-1.86,2.45
				c-0.48,0.3-1.17,0.6-2.04,0.89c-1.23,0.34-2.33,0.51-3.29,0.51c-0.23,0-0.56-0.03-0.98-0.08c-1.02,2.71-1.53,5.23-1.53,7.58v0.4
				c0,2.31,0.53,4.02,1.59,5.15c0.57,0.55,1.32,0.82,2.25,0.82c2.31,0,4.22-1.18,5.72-3.55c0.31-0.58,0.51-0.88,0.61-0.88h0.05
				c0.11,0.04,0.16,0.12,0.16,0.24c-0.06,0.59-0.38,1.31-0.95,2.15c-0.58,0.72-1.12,1.24-1.62,1.56c-1.59,1.08-3.25,1.62-4.96,1.62
				c-2.38,0-4.05-1.13-5.03-3.39c-0.5-1.14-0.75-2.47-0.75-4c0-2.45,0.65-5.36,1.94-8.75c-0.42-0.24-1-0.72-1.72-1.43
				c-0.98-1.2-1.53-2.25-1.65-3.15v-0.16c0.01-0.03,0.02-0.05,0.05-0.05h0.01c0.08,0,0.25,0.35,0.53,1.06
				c0.49,1.04,1.57,1.92,3.23,2.64h0.02c0.18-0.46,0.52-1.07,1.04-1.82C124.72,164.29,126.57,163.16,128.48,163.16z M124.5,169.25
				l0.2,0.05c1.71,0,3.17-0.49,4.36-1.48c0.58-0.6,0.88-1.19,0.88-1.78c0-0.73-0.35-1.15-1.06-1.27h-0.16c-0.95,0-2,0.85-3.15,2.56
				C125.17,167.94,124.81,168.58,124.5,169.25z"/>
			<path d="M134.27,165.95h0.05c0.33,0.02,0.72,0.16,1.18,0.4c0.37,0.23,0.55,0.65,0.55,1.27c0,0.45-0.18,1.38-0.55,2.81
				c-1.06,4.28-1.59,7.15-1.59,8.62c0,0.47,0.08,0.78,0.23,0.95c0.06,0.04,0.11,0.06,0.14,0.06h0.07c0.35-0.06,0.84-0.51,1.49-1.34
				c0.52-0.78,0.93-1.65,1.26-2.61c0.06-0.27,0.14-0.4,0.23-0.4h0.01c0.02,0,0.03,0.01,0.03,0.03v0.03
				c-0.38,1.4-0.81,2.55-1.27,3.46c-0.81,1.54-1.65,2.31-2.54,2.31c-0.83,0-1.38-0.46-1.64-1.37c-0.09-0.39-0.14-0.78-0.14-1.15
				c0-0.66,0.16-1.71,0.48-3.15c0.57-2.83,1.14-5.91,1.72-9.25v-0.05l-0.01-0.12C133.97,166.12,134.07,165.95,134.27,165.95z"/>
			<path d="M140.74,171.16c0.54,0,1.03,0.22,1.48,0.65c0.18,0.19,0.31,0.37,0.4,0.52c0.13,0.21,0.25,0.46,0.37,0.76
				c0.08,0.23,0.17,0.56,0.25,0.99c0.08,0.48,0.12,0.8,0.12,0.96c0.18,0.02,0.38,0.03,0.59,0.03h0.15c0.79,0,1.71-0.13,2.76-0.4
				c0.13-0.03,0.22-0.05,0.28-0.05c0.02,0,0.03,0.01,0.03,0.03c0,0.06-0.09,0.14-0.27,0.24c-0.2,0.09-0.51,0.2-0.93,0.32
				c-0.72,0.19-1.42,0.28-2.11,0.28c-0.07,0-0.23,0-0.47-0.01c0,0.08,0,0.17,0.01,0.27c0,1.5-0.33,2.77-0.99,3.82
				c-0.11,0.18-0.28,0.39-0.51,0.65c-0.23,0.25-0.4,0.4-0.51,0.47c-0.65,0.49-1.32,0.74-2.01,0.74c-0.56,0-1.07-0.16-1.51-0.47
				c-0.53-0.37-0.91-0.94-1.14-1.72c-0.13-0.45-0.2-0.94-0.2-1.47v-0.05c0-0.75,0.12-1.58,0.37-2.48c0.12-0.32,0.35-0.58,0.67-0.76
				c0.22-0.11,0.4-0.17,0.54-0.2c0.08-0.02,0.21-0.04,0.39-0.06c0.38,0.01,0.6,0.1,0.68,0.28c0.02,0.03,0.02,0.06,0.02,0.08
				c0,0.07-0.04,0.18-0.12,0.35c-0.4,0.96-0.6,1.83-0.6,2.61c0,0.82,0.22,1.46,0.65,1.9c0.28,0.25,0.57,0.38,0.88,0.38h0.03
				c0.36,0,0.72-0.17,1.06-0.51c0.18-0.2,0.31-0.38,0.39-0.54c0.4-0.74,0.6-1.67,0.6-2.8v-0.08c0-0.25-0.01-0.44-0.02-0.59
				c-0.45-0.1-0.83-0.22-1.17-0.36c-0.45-0.18-0.87-0.4-1.23-0.65c-0.61-0.45-0.91-0.93-0.91-1.47v-0.01c0-0.39,0.17-0.75,0.5-1.08
				c0.16-0.15,0.31-0.25,0.45-0.32C140.04,171.24,140.38,171.16,140.74,171.16z M140.21,172.59c0,0.34,0.15,0.69,0.44,1.05
				c0.16,0.2,0.32,0.36,0.47,0.47c0.32,0.25,0.59,0.42,0.81,0.52l0.14,0.07v-0.01c0-0.26-0.04-0.64-0.12-1.14
				c-0.08-0.37-0.16-0.65-0.24-0.85c-0.06-0.16-0.15-0.32-0.25-0.47c-0.2-0.27-0.42-0.4-0.65-0.4c-0.22,0-0.38,0.12-0.51,0.35
				C140.24,172.29,140.21,172.43,140.21,172.59z"/>
			<path d="M150.73,171.77h0.12c0.41,0,0.82,0.25,1.23,0.74c0.25,0.35,0.37,0.7,0.37,1.03v0.13c0,0.35-0.27,1.3-0.8,2.85
				c-0.57,1.79-0.85,3.05-0.85,3.76c0.02,0.39,0.11,0.59,0.27,0.59h0.03c0.45,0,1.23-0.94,2.34-2.83c0.25-0.49,0.5-1,0.74-1.52
				c0.03-0.02,0.06-0.03,0.08-0.03c0.08,0,0.13,0.05,0.15,0.16v0.06c0,0.21-0.1,0.5-0.3,0.87c-0.35,0.78-0.8,1.6-1.37,2.48
				c-1.09,1.56-2.01,2.34-2.75,2.34c-0.67,0-1.09-0.74-1.26-2.22c-0.02-0.12-0.04-0.32-0.05-0.61c-0.64,0.57-1.21,0.85-1.72,0.85
				c-0.52,0-1-0.28-1.44-0.85c-0.22-0.4-0.33-0.88-0.33-1.43c0-0.68,0.3-2.07,0.89-4.17c0.15-0.62,0.23-1.13,0.23-1.55v-0.06
				c0.03-0.18,0.13-0.28,0.29-0.28c0.45,0.06,1.05,0.49,1.8,1.28c0.04,0.11,0.06,0.2,0.07,0.29c0,0.54-0.33,1.95-1,4.25
				c-0.13,0.49-0.2,0.87-0.2,1.14c0.03,0.3,0.15,0.45,0.35,0.45h0.06c0.28,0,0.64-0.19,1.08-0.57c0.17-0.91,0.38-1.8,0.63-2.67
				c0.22-0.65,0.42-1.41,0.59-2.3l0.38-2.05C150.48,171.81,150.6,171.77,150.73,171.77z"/>
			<path d="M162.29,165.73h0.02c0.15,0,0.22,0.15,0.22,0.46c0,0.66-0.35,2.15-1.06,4.45c-0.69,2.35-1.29,4.88-1.79,7.59
				c-0.19,1.18-0.29,2.08-0.29,2.7v0.18c0,0.65,0.17,1.02,0.5,1.13c0.02,0.02,0.04,0.02,0.08,0.02c0.71,0,1.58-1.35,2.62-4.04
				c0.12-0.35,0.24-0.75,0.36-1.22c0.07-0.06,0.13-0.09,0.18-0.09c0.03,0.04,0.05,0.09,0.05,0.15c-0.06,0.76-0.5,2.05-1.32,3.88
				c-0.98,1.98-1.83,2.98-2.53,2.98h-0.03c-0.73,0-1.25-1.12-1.55-3.35c-0.02-0.27-0.03-0.48-0.03-0.65
				c-0.91,0.85-1.8,1.28-2.69,1.28h-0.15c-0.89,0-1.52-0.55-1.87-1.65c-0.09-0.38-0.14-0.8-0.14-1.26c0-1.29,0.42-2.58,1.27-3.87
				c0.83-1.08,1.81-1.63,2.93-1.63c0.67,0,1.22,0.2,1.65,0.59c0.9-3.04,1.59-5.06,2.08-6.07
				C161.37,166.27,161.86,165.73,162.29,165.73z M155.02,178.69c0,0.57,0.19,0.93,0.58,1.1c0.13,0.04,0.31,0.07,0.54,0.09
				c0.52,0,1.05-0.28,1.58-0.83c0-1.12,0.27-2.73,0.8-4.83c-0.15-0.04-0.29-0.06-0.43-0.07c-0.91,0-1.74,0.75-2.5,2.26
				C155.21,177.27,155.02,178.03,155.02,178.69z"/>
			<path d="M178.5,163.16c1.26,0,2.34,0.7,3.23,2.09c0.27,0.52,0.4,0.97,0.4,1.35v0.16c0,0.88-0.62,1.69-1.86,2.45
				c-0.48,0.3-1.17,0.6-2.04,0.89c-1.23,0.34-2.33,0.51-3.29,0.51c-0.23,0-0.56-0.03-0.98-0.08c-1.02,2.71-1.53,5.23-1.53,7.58v0.4
				c0,2.31,0.53,4.02,1.59,5.15c0.57,0.55,1.32,0.82,2.25,0.82c2.31,0,4.22-1.18,5.72-3.55c0.31-0.58,0.51-0.88,0.61-0.88h0.05
				c0.11,0.04,0.16,0.12,0.16,0.24c-0.06,0.59-0.38,1.31-0.95,2.15c-0.58,0.72-1.12,1.24-1.62,1.56c-1.59,1.08-3.25,1.62-4.96,1.62
				c-2.38,0-4.05-1.13-5.03-3.39c-0.5-1.14-0.75-2.47-0.75-4c0-2.45,0.65-5.36,1.94-8.75c-0.42-0.24-1-0.72-1.72-1.43
				c-0.98-1.2-1.53-2.25-1.65-3.15v-0.16c0.01-0.03,0.02-0.05,0.05-0.05h0.01c0.08,0,0.25,0.35,0.53,1.06
				c0.49,1.04,1.57,1.92,3.23,2.64h0.02c0.18-0.46,0.52-1.07,1.04-1.82C174.75,164.29,176.6,163.16,178.5,163.16z M174.52,169.25
				l0.2,0.05c1.71,0,3.17-0.49,4.36-1.48c0.58-0.6,0.88-1.19,0.88-1.78c0-0.73-0.35-1.15-1.06-1.27h-0.16c-0.95,0-2,0.85-3.15,2.56
				C175.19,167.94,174.84,168.58,174.52,169.25z"/>
			<path d="M186.28,171.16c0.54,0,1.03,0.22,1.48,0.65c0.18,0.19,0.31,0.37,0.4,0.52c0.13,0.21,0.25,0.46,0.37,0.76
				c0.08,0.23,0.17,0.56,0.25,0.99c0.08,0.48,0.12,0.8,0.12,0.96c0.18,0.02,0.38,0.03,0.59,0.03h0.15c0.79,0,1.71-0.13,2.76-0.4
				c0.13-0.03,0.22-0.05,0.28-0.05c0.02,0,0.03,0.01,0.03,0.03c0,0.06-0.09,0.14-0.27,0.24c-0.2,0.09-0.51,0.2-0.93,0.32
				c-0.72,0.19-1.42,0.28-2.11,0.28c-0.07,0-0.23,0-0.47-0.01c0,0.08,0,0.17,0.01,0.27c0,1.5-0.33,2.77-0.99,3.82
				c-0.11,0.18-0.28,0.39-0.51,0.65c-0.23,0.25-0.4,0.4-0.51,0.47c-0.65,0.49-1.32,0.74-2.01,0.74c-0.56,0-1.07-0.16-1.51-0.47
				c-0.53-0.37-0.91-0.94-1.14-1.72c-0.13-0.45-0.2-0.94-0.2-1.47v-0.05c0-0.75,0.12-1.58,0.37-2.48c0.12-0.32,0.35-0.58,0.67-0.76
				c0.22-0.11,0.4-0.17,0.54-0.2c0.08-0.02,0.21-0.04,0.39-0.06c0.38,0.01,0.6,0.1,0.68,0.28c0.02,0.03,0.02,0.06,0.02,0.08
				c0,0.07-0.04,0.18-0.12,0.35c-0.4,0.96-0.6,1.83-0.6,2.61c0,0.82,0.22,1.46,0.65,1.9c0.28,0.25,0.57,0.38,0.88,0.38h0.03
				c0.36,0,0.72-0.17,1.06-0.51c0.18-0.2,0.31-0.38,0.39-0.54c0.4-0.74,0.6-1.67,0.6-2.8v-0.08c0-0.25-0.01-0.44-0.02-0.59
				c-0.45-0.1-0.83-0.22-1.17-0.36c-0.45-0.18-0.87-0.4-1.23-0.65c-0.61-0.45-0.91-0.93-0.91-1.47v-0.01c0-0.39,0.17-0.75,0.5-1.08
				c0.16-0.15,0.31-0.25,0.45-0.32C185.58,171.24,185.92,171.16,186.28,171.16z M185.75,172.59c0,0.34,0.15,0.69,0.44,1.05
				c0.16,0.2,0.32,0.36,0.47,0.47c0.32,0.25,0.59,0.42,0.81,0.52l0.14,0.07v-0.01c0-0.26-0.04-0.64-0.12-1.14
				c-0.08-0.37-0.16-0.65-0.24-0.85c-0.06-0.16-0.15-0.32-0.25-0.47c-0.2-0.27-0.42-0.4-0.65-0.4c-0.22,0-0.38,0.12-0.51,0.35
				C185.78,172.29,185.75,172.43,185.75,172.59z"/>
			<path d="M196.49,171.88c0.62,0,1.02,0.4,1.22,1.19c0.07,0.33,0.1,0.66,0.1,0.98v0.07c0,0.83-0.18,1.73-0.54,2.69
				c-0.7,2.25-1.05,3.64-1.05,4.19v0.05c0,0.18,0.04,0.28,0.12,0.32h0.06c0.28,0,0.86-0.74,1.73-2.23c0.62-1.05,1.19-2.09,1.71-3.12
				c0.14-0.21,0.25-0.31,0.33-0.31h0.02c0.02,0,0.04,0.03,0.05,0.09c0,0.22-0.63,1.53-1.89,3.93c-0.47,0.87-0.96,1.64-1.47,2.31
				c-0.48,0.51-0.94,0.76-1.37,0.76c-0.55,0-0.93-0.33-1.14-0.99c-0.05-0.23-0.08-0.44-0.08-0.63v-0.25c0-0.57,0.32-2.55,0.96-5.95
				c0.04-0.35,0.06-0.62,0.06-0.78v-0.15c0-0.08-0.02-0.13-0.06-0.15c-0.2,0.02-0.95,1.53-2.26,4.51c-0.4,0.92-0.6,1.41-0.6,1.48
				c-0.12,0.73-0.28,1.1-0.46,1.1c-0.48-0.17-0.89-0.52-1.21-1.05c-0.19-0.35-0.29-0.7-0.29-1.07c0-0.06,0.13-0.81,0.38-2.24
				c0.2-1.21,0.43-2.64,0.69-4.3c0.14-0.26,0.3-0.39,0.48-0.39c0.36,0,0.86,0.5,1.49,1.5c0.01,0.06,0.01,0.12,0.01,0.17v0.12
				c0,0.6-0.2,1.77-0.6,3.51v0.02h0.02c1.01-2.43,1.89-4.05,2.64-4.87C195.84,172.04,196.16,171.88,196.49,171.88z"/>
			<path d="M201.96,171.06c0.63,0,1.18,0.19,1.66,0.57c0.19,0.18,0.3,0.31,0.33,0.37c0.16,0.23,0.24,0.43,0.24,0.6v0.05
				c0,0.32-0.08,0.63-0.25,0.92c-0.12,0.16-0.23,0.24-0.36,0.24c-0.12,0-0.2-0.05-0.24-0.15v-0.05c0-0.06,0.04-0.24,0.13-0.54
				c0.02-0.08,0.02-0.15,0.02-0.21v-0.02c0-0.29-0.19-0.52-0.58-0.67c-0.08-0.02-0.16-0.03-0.23-0.03h-0.02
				c-0.34,0-0.66,0.2-0.97,0.59c-0.13,0.18-0.23,0.34-0.29,0.47c-0.12,0.28-0.17,0.51-0.17,0.68c-0.01,0-0.01,0-0.01,0.01v0.15
				c0,0.69,0.25,1.58,0.74,2.68c0.18,0.42,0.49,1.12,0.93,2.08h0.01c0.31-0.22,0.65-0.46,1.02-0.74c0.14-0.12,0.33-0.3,0.57-0.54
				c0.25-0.27,0.42-0.53,0.53-0.8c0.05-0.12,0.09-0.25,0.13-0.4c0.05-0.1,0.1-0.15,0.13-0.15h0.01c0.04,0,0.06,0.05,0.07,0.15v0.06
				c-0.02,0.22-0.15,0.56-0.4,1.02c-0.45,0.72-1.07,1.33-1.83,1.82c0.02,0.07,0.09,0.23,0.22,0.48c0.33,0.6,0.55,1.02,0.67,1.25
				c0.21,0.4,0.31,0.73,0.31,1v0.07c0,0.54-0.35,1.11-1.05,1.72c-0.22,0.18-0.43,0.33-0.61,0.43c-0.63,0.33-1.27,0.5-1.92,0.5h-0.07
				c-0.08,0-0.17,0-0.27-0.01c-0.1,0.01-0.19,0.01-0.28,0.01h-0.03c-0.74,0-1.35-0.19-1.85-0.58c-0.35-0.29-0.52-0.63-0.52-1.02
				c0-0.53,0.3-1.08,0.91-1.66c0.35-0.31,0.74-0.6,1.17-0.89c0.47-0.32,0.96-0.63,1.46-0.95c-0.53-1.11-0.93-2-1.21-2.65
				c-0.52-1.26-0.78-2.27-0.78-3.02c0-0.58,0.15-1.12,0.44-1.63c0.31-0.5,0.76-0.85,1.33-1.05
				C201.33,171.11,201.64,171.06,201.96,171.06z M199.28,182.82c0,0.23,0.14,0.39,0.43,0.48c0.04,0.02,0.06,0.02,0.07,0.02
				c0.07,0,0.25-0.05,0.54-0.16c0.17-0.08,0.34-0.18,0.52-0.3c0.6-0.45,0.9-1.02,0.9-1.68v-0.03c0-0.26-0.05-0.55-0.16-0.85
				c-0.38,0.26-0.8,0.58-1.23,0.96C199.64,181.89,199.28,182.41,199.28,182.82z"/>
			<path d="M210.32,171.77h0.12c0.41,0,0.82,0.25,1.23,0.74c0.25,0.35,0.37,0.7,0.37,1.03v0.13c0,0.35-0.27,1.3-0.8,2.85
				c-0.57,1.79-0.85,3.05-0.85,3.76c0.02,0.39,0.11,0.59,0.27,0.59h0.03c0.45,0,1.23-0.94,2.34-2.83c0.25-0.49,0.5-1,0.74-1.52
				c0.03-0.02,0.06-0.03,0.08-0.03c0.08,0,0.13,0.05,0.15,0.16v0.06c0,0.21-0.1,0.5-0.3,0.87c-0.35,0.78-0.8,1.6-1.37,2.48
				c-1.09,1.56-2.01,2.34-2.75,2.34c-0.67,0-1.09-0.74-1.26-2.22c-0.02-0.12-0.04-0.32-0.05-0.61c-0.64,0.57-1.21,0.85-1.72,0.85
				c-0.52,0-1-0.28-1.44-0.85c-0.22-0.4-0.33-0.88-0.33-1.43c0-0.68,0.3-2.07,0.89-4.17c0.15-0.62,0.23-1.13,0.23-1.55v-0.06
				c0.03-0.18,0.13-0.28,0.29-0.28c0.45,0.06,1.05,0.49,1.8,1.28c0.04,0.11,0.06,0.2,0.07,0.29c0,0.54-0.33,1.95-1,4.25
				c-0.13,0.49-0.2,0.87-0.2,1.14c0.03,0.3,0.15,0.45,0.35,0.45h0.06c0.28,0,0.64-0.19,1.08-0.57c0.17-0.91,0.38-1.8,0.63-2.67
				c0.22-0.65,0.42-1.41,0.59-2.3l0.38-2.05C210.07,171.81,210.19,171.77,210.32,171.77z"/>
			<path d="M215.1,165.95h0.05c0.33,0.02,0.72,0.16,1.18,0.4c0.37,0.23,0.55,0.65,0.55,1.27c0,0.45-0.18,1.38-0.55,2.81
				c-1.06,4.28-1.59,7.15-1.59,8.62c0,0.47,0.08,0.78,0.23,0.95c0.06,0.04,0.11,0.06,0.14,0.06h0.07c0.35-0.06,0.84-0.51,1.49-1.34
				c0.52-0.78,0.93-1.65,1.26-2.61c0.06-0.27,0.14-0.4,0.23-0.4h0.01c0.02,0,0.03,0.01,0.03,0.03v0.03
				c-0.38,1.4-0.81,2.55-1.27,3.46c-0.81,1.54-1.65,2.31-2.54,2.31c-0.83,0-1.38-0.46-1.64-1.37c-0.09-0.39-0.14-0.78-0.14-1.15
				c0-0.66,0.16-1.71,0.48-3.15c0.57-2.83,1.14-5.91,1.72-9.25v-0.05l-0.01-0.12C214.8,166.12,214.9,165.95,215.1,165.95z"/>
			<path d="M220.2,165.72c0.34,0.02,0.75,0.17,1.23,0.43c0.33,0.22,0.5,0.63,0.5,1.22c0,0.38-0.05,0.78-0.15,1.21h0.02
				c0.62-0.18,1.13-0.39,1.56-0.61c0.32-0.18,0.65-0.42,0.97-0.72c0.28-0.28,0.47-0.55,0.57-0.81c0.13-0.08,0.25-0.13,0.37-0.13
				h0.01c0.1,0,0.16,0.07,0.17,0.22c0,0.29-0.2,0.72-0.6,1.28c-0.55,0.52-1.18,0.91-1.89,1.15c-0.43,0.17-0.89,0.32-1.37,0.44
				c-1.18,4.75-1.78,7.84-1.78,9.29v0.12c0,0.72,0.18,1.08,0.54,1.08c0.72,0,2.12-1.43,4.21-4.29h0.02v0.01
				c-0.36,1.2-1.09,2.49-2.19,3.87c-1.08,1.22-2.07,1.83-2.97,1.83c-0.79,0-1.33-0.45-1.6-1.34c-0.09-0.35-0.14-0.74-0.14-1.19
				c0-0.74,0.18-1.88,0.55-3.44c0.5-2.63,0.85-4.5,1.05-5.62h-0.01c-0.46,0.02-0.81,0.02-1.04,0.02c-2.71,0-4.2-0.12-4.49-0.35
				l-0.01-0.08v-0.08c0.08-0.12,0.21-0.17,0.4-0.17c0.48,0.02,1.13,0.04,1.95,0.05c1.08,0,2.2-0.04,3.33-0.13
				c0.3-1.48,0.45-2.4,0.45-2.73C219.88,165.9,219.98,165.72,220.2,165.72z"/>
			<path d="M224.35,171.39h0.12c0.45,0.07,0.84,0.21,1.18,0.43c0.32,0.24,0.48,0.63,0.48,1.18v0.12c0,0.49-0.13,1.14-0.4,1.94
				c-0.59,2.06-0.89,3.43-0.89,4.12v0.1c0,0.45,0.13,0.67,0.39,0.67c0.44-0.08,0.98-0.51,1.62-1.3c0.4-0.58,0.76-1.23,1.07-1.96
				c0.25-0.72,0.4-1.11,0.45-1.19l0.08-0.01c0.02,0.02,0.03,0.04,0.03,0.06c-0.3,1.11-0.63,2.07-0.98,2.88
				c-0.88,1.93-1.81,2.9-2.79,2.9h-0.17c-0.49,0-0.92-0.26-1.27-0.77c-0.24-0.45-0.36-0.98-0.36-1.6v-0.18c0-0.04,0-0.07-0.01-0.09
				c0-0.61,0.23-1.93,0.7-3.96c0.31-1.53,0.46-2.46,0.46-2.79C224.06,171.56,224.16,171.39,224.35,171.39z M225.64,168.65h0.13
				c0.31,0,0.55,0.29,0.74,0.88c0.04,0.18,0.06,0.32,0.06,0.43c-0.08,0.64-0.37,0.96-0.84,0.96h-0.07c-0.29,0-0.65-0.15-1.07-0.44
				c-0.13-0.15-0.2-0.31-0.2-0.48c0-0.4,0.23-0.78,0.7-1.15C225.33,168.71,225.51,168.65,225.64,168.65z"/>
			<path d="M233.37,171.88c0.62,0,1.02,0.4,1.22,1.19c0.07,0.33,0.1,0.66,0.1,0.98v0.07c0,0.83-0.18,1.73-0.54,2.69
				c-0.7,2.25-1.05,3.64-1.05,4.19v0.05c0,0.18,0.04,0.28,0.12,0.32h0.06c0.28,0,0.86-0.74,1.73-2.23c0.62-1.05,1.19-2.09,1.71-3.12
				c0.14-0.21,0.25-0.31,0.33-0.31h0.02c0.02,0,0.04,0.03,0.05,0.09c0,0.22-0.63,1.53-1.89,3.93c-0.47,0.87-0.96,1.64-1.47,2.31
				c-0.48,0.51-0.94,0.76-1.37,0.76c-0.55,0-0.93-0.33-1.14-0.99c-0.05-0.23-0.08-0.44-0.08-0.63v-0.25c0-0.57,0.32-2.55,0.96-5.95
				c0.04-0.35,0.06-0.62,0.06-0.78v-0.15c0-0.08-0.02-0.13-0.06-0.15c-0.2,0.02-0.95,1.53-2.26,4.51c-0.4,0.92-0.6,1.41-0.6,1.48
				c-0.12,0.73-0.28,1.1-0.46,1.1c-0.48-0.17-0.89-0.52-1.21-1.05c-0.19-0.35-0.29-0.7-0.29-1.07c0-0.06,0.13-0.81,0.38-2.24
				c0.2-1.21,0.43-2.64,0.69-4.3c0.14-0.26,0.3-0.39,0.48-0.39c0.36,0,0.86,0.5,1.49,1.5c0.01,0.06,0.01,0.12,0.01,0.17v0.12
				c0,0.6-0.2,1.77-0.6,3.51v0.02h0.02c1.01-2.43,1.89-4.05,2.64-4.87C232.73,172.04,233.04,171.88,233.37,171.88z"/>
			<path d="M242.13,170.96c0.39,0,0.78,0.25,1.17,0.76c0.14,0.2,0.21,0.35,0.21,0.45c-0.85,5-1.37,7.91-1.55,8.75
				c0.84,0.15,1.47,0.32,1.89,0.48c0.4,0.18,0.68,0.33,0.84,0.45v0.02c0,0.06-0.02,0.1-0.07,0.12c-1.28-0.4-2.1-0.6-2.43-0.6
				c0-0.02-0.1-0.03-0.31-0.06c-0.32,1.48-0.66,2.65-1.03,3.52c-0.35,0.87-0.77,1.65-1.27,2.34c-0.22,0.29-0.51,0.58-0.85,0.87
				c-0.52,0.37-0.98,0.55-1.38,0.55h-0.05c-0.64,0-1.2-0.41-1.7-1.22c-0.4-0.73-0.6-1.52-0.6-2.35c0-1.64,0.69-2.87,2.08-3.68
				c0.72-0.34,1.38-0.53,1.98-0.57c0.48-0.03,0.77-0.05,0.84-0.06c0.17-1.13,0.32-2.26,0.45-3.38v-0.01h-0.01
				c-0.15,0.38-0.45,0.84-0.89,1.37c-0.54,0.52-1.08,0.77-1.62,0.77c-0.67,0-1.22-0.36-1.64-1.07c-0.21-0.42-0.31-0.9-0.31-1.44
				c0-1.28,0.47-2.55,1.42-3.82c0.47-0.53,0.83-0.87,1.08-1.02c0.52-0.3,0.97-0.45,1.34-0.45h0.21c0.4,0,0.83,0.15,1.28,0.45h0.02
				C241.39,171.35,241.68,170.96,242.13,170.96z M235.99,184.63c0,0.85,0.39,1.55,1.18,2.12c0.17,0.1,0.33,0.15,0.5,0.15
				c0.54,0,1.02-0.78,1.43-2.35c0.24-0.74,0.47-1.79,0.69-3.15v-0.01c0-0.03-0.05-0.05-0.15-0.07c-0.71,0.08-1.27,0.23-1.7,0.45
				c-0.34,0.15-0.75,0.47-1.22,0.96C236.24,183.33,235.99,183.96,235.99,184.63z M238.01,177.5c0,0.63,0.13,0.95,0.38,0.95
				c0.42,0,1.08-0.78,2.01-2.33l0.73-3.16c0.02-0.08,0.03-0.16,0.03-0.23v-0.03c-0.22-0.34-0.51-0.51-0.85-0.51
				c-0.98,0-1.72,1.41-2.22,4.23C238.04,176.86,238.01,177.22,238.01,177.5z"/>
		</g>
	</g>
	<path d="M91.44,77c14.42,0,26.38,10.23,28.53,23.64c2.16-0.65,4.32-0.94,6.72-0.94c6.47,0,13.01,2.88,18.06,7.29
		c3.66,3.2,6.52,7.22,7.9,11.57h7.14v-0.22c-0.86-14.35-15.29-24.52-30.2-24.52c-2.72,0-5.24,0.35-7.71,1
		c-2.46-15.11-16.21-26.76-32.79-26.76c-18.37,0-33.28,14.29-33.28,31.7c0,2.88,0.37,5.59,1.11,8.23
		c-18.37,1.53-32.73,16.99-32.73,35.82c0,19.11,14.73,34.69,33.41,35.99c0.62,0.06,1.35,0.12,2.09,0.12h50.34
		c0,0,0.16-3.61,0.16-4.36H65.86c-0.62,0-1.24-0.06-1.79-0.11c-16.27-1.12-29.03-14.82-29.03-31.7c0-16.58,12.45-30.22,28.41-31.52
		c-0.62-2.35-0.92-4.76-0.92-7.23C62.53,89.58,75.47,77,91.44,77z"/>
</g>
</svg>
