<svg width="510" height="92" viewBox="0 0 510 92" fill="none" xmlns="http://www.w3.org/2000/svg">
<path d="M140.092 43.5978V22.5531H152.419C161.839 22.5531 165.947 26.3612 165.947 33.1757C165.947 39.9901 161.839 43.5978 152.419 43.5978H140.092ZM140.092 53.8195H152.819C168.954 53.8195 178.173 46.2033 178.173 33.0755C178.173 19.9476 168.954 12.4316 152.819 12.4316H127.666V75.5657H140.092V53.8195Z" fill="#0042AA"/>
<path d="M209.898 56.425C209.898 63.5401 205.087 68.3503 198.774 68.3503C194.966 68.3503 192.661 66.5465 192.661 63.5401C192.661 59.1308 196.369 58.2289 201.58 57.1265L209.898 55.3227V56.425ZM221.622 47.2055C221.622 35.5808 214.107 30.1693 202.682 30.1693C190.957 30.1693 184.043 36.4827 182.54 45.5018L193.463 46.504C194.465 42.1948 197.171 39.1884 202.181 39.1884C207.292 39.1884 209.898 42.1948 209.898 47.1052V48.1074L197.772 50.5125C187.751 52.5167 180.936 56.0242 180.936 64.442C180.936 72.0582 186.548 76.668 195.768 76.668C202.281 76.668 208.294 73.9623 210.799 68.8514C211.902 73.6616 215.109 76.5678 220.119 76.5678C224.128 76.5678 226.533 75.265 228.437 73.7618V67.3482C227.134 67.9495 225.932 68.2501 224.729 68.2501C222.825 68.2501 221.622 67.1478 221.622 64.8429V47.2055Z" fill="#0042AA"/>
<path d="M250.519 92.0005L275.873 31.3718H264.148L252.223 61.5359H251.822L239.796 31.3718H227.169L245.508 75.7661L238.694 92.0005H250.519Z" fill="#0042AA"/>
<path d="M293.329 51.9155C293.329 44.4997 297.137 39.6895 303.25 39.6895C309.162 39.6895 311.868 43.5978 311.868 50.4123V75.5657H323.893V48.0072C323.893 38.1863 319.584 30.1693 307.759 30.1693C301.145 30.1693 295.533 33.5765 293.329 38.5872V12.4316H281.303V75.5657H293.329V51.9155Z" fill="#0042AA"/>
<path d="M333.562 31.3718V75.5657H345.588V31.3718H333.562ZM333.362 24.1565H345.688V12.4316H333.362V24.1565Z" fill="#0042AA"/>
<path d="M367.605 52.6169C367.605 44.5999 372.415 39.5893 379.23 39.5893C386.846 39.5893 390.754 45.101 390.754 53.5189C390.754 61.8365 386.846 67.3482 379.23 67.3482C372.415 67.3482 367.605 62.4378 367.605 54.3206V52.6169ZM367.705 67.1478C369.709 72.4591 375.021 76.7682 382.938 76.7682C395.965 76.7682 402.88 66.5465 402.88 53.5189C402.88 40.4912 395.965 30.1693 382.938 30.1693C375.021 30.1693 369.709 34.4784 367.705 39.8899V31.3718H355.68V92.0005H367.705V67.1478Z" fill="#0042AA"/>
<path d="M422.409 52.6169C422.409 44.5999 427.219 39.5893 434.033 39.5893C441.65 39.5893 445.558 45.101 445.558 53.5189C445.558 61.8365 441.65 67.3482 434.033 67.3482C427.219 67.3482 422.409 62.4378 422.409 54.3206V52.6169ZM422.509 67.1478C424.513 72.4591 429.825 76.7682 437.741 76.7682C450.769 76.7682 457.684 66.5465 457.684 53.5189C457.684 40.4912 450.769 30.1693 437.741 30.1693C429.825 30.1693 424.513 34.4784 422.509 39.8899V31.3718H410.483V92.0005H422.509V67.1478Z" fill="#0042AA"/>
<path d="M475.101 53.5189C475.101 45.101 478.909 39.2887 486.225 39.2887C493.64 39.2887 497.449 45.101 497.449 53.5189C497.449 61.8365 493.64 67.6488 486.225 67.6488C478.909 67.6488 475.101 61.8365 475.101 53.5189ZM509.574 53.5189C509.574 39.7897 499.954 30.1693 486.225 30.1693C472.596 30.1693 462.975 39.7897 462.975 53.5189C462.975 67.248 472.596 76.7682 486.225 76.7682C499.954 76.7682 509.574 67.248 509.574 53.5189Z" fill="#0042AA"/>
<path d="M98.7762 44.7428L98.51 44.8546C98.1474 45.012 97.8212 45.2427 97.5519 45.5321C97.2826 45.8216 97.076 46.1635 96.9452 46.5366C96.4218 47.8959 95.4518 49.0368 94.1944 49.7719C92.9369 50.507 91.4669 50.7926 90.0257 50.5818C88.8723 46.049 86.6417 41.8617 83.5235 38.3755C80.4052 34.8894 76.4915 32.2076 72.1148 30.5579L45.874 20.6204C41.7125 19.0289 37.226 18.475 32.8024 19.0064C28.3787 19.5379 24.1511 21.1388 20.485 23.6707C16.819 26.2027 13.8247 29.5894 11.7612 33.5382C9.69771 37.487 8.62703 41.8789 8.64175 46.3343V80.2665C8.64175 85.9671 13.2033 89.315 17.7808 89.315C19.5099 89.3333 21.2054 88.837 22.6517 87.8892C24.098 86.9415 25.2298 85.585 25.9032 83.9923L27.6704 80.0855C27.6704 80.0855 35.0796 73.7728 50.5579 73.2245C51.0902 73.2245 51.6491 73.1979 52.2026 73.1979C61.9272 73.1979 72.5885 76.0882 73.4615 79.2605L75.9099 84.0509C76.3018 85.6674 77.2331 87.102 78.5501 88.118C79.867 89.1341 81.491 89.6708 83.1541 89.6397C86.9864 89.6397 90.8241 86.9411 90.8347 82.0496L90.8826 57.8047C90.8826 57.4321 90.8826 57.0542 90.8826 56.6816C93.4521 56.6951 95.9628 55.9129 98.07 54.4424C100.177 52.9719 101.777 50.8852 102.651 48.4687C102.852 47.9334 102.891 47.3511 102.764 46.7936C102.638 46.2362 102.351 45.728 101.939 45.3318C101.527 44.9356 101.008 44.6687 100.446 44.564C99.8836 44.4594 99.3032 44.5215 98.7762 44.7428Z" fill="url(#paint0_linear_8525_16937)" style="mix-blend-mode:screen"/>
<path d="M56.6789 0C55.0211 0.00266987 53.3803 0.333719 51.8512 0.974045L25.3495 11.9654C23.9702 12.5366 22.6343 13.2072 21.3522 13.9721C21.1804 13.1405 20.7973 12.3672 20.24 11.7266C19.6826 11.086 18.9696 10.5998 18.1698 10.3147C17.3699 10.0296 16.5101 9.95531 15.6732 10.0989C14.8363 10.2426 14.0505 10.5993 13.3915 11.1348C12.7325 11.6702 12.2225 12.3664 11.9106 13.1561C11.5987 13.9459 11.4954 14.8027 11.6107 15.6439C11.726 16.4852 12.056 17.2826 12.5689 17.9593C13.0818 18.636 13.7603 19.1693 14.5391 19.5077C13.2943 20.8533 12.1737 22.3087 11.1912 23.8563C10.501 23.0432 9.61715 22.417 8.62117 22.0355C7.62519 21.654 6.54917 21.5296 5.4924 21.6736C4.43564 21.8177 3.43218 22.2255 2.57462 22.8596C1.71706 23.4937 1.03303 24.3336 0.585655 25.3018C0.138278 26.27 -0.0580295 27.3352 0.0148403 28.3993C0.0877101 29.4633 0.427414 30.4919 1.0026 31.39C1.57779 32.2881 2.36993 33.0269 3.30593 33.5382C4.24193 34.0495 5.29164 34.3168 6.35817 34.3154C6.56575 34.3154 6.76801 34.3154 6.97559 34.2888C6.56528 36.3015 6.35844 38.3504 6.35817 40.4045V76.7319C6.35817 84.5509 12.6762 89.3307 19.0794 89.3307C21.2357 89.3448 23.3572 88.7867 25.2274 87.7132C27.0975 86.6398 28.6495 85.0894 29.7248 83.2202L36.9477 71.2389C38.3181 68.9509 40.382 67.1592 42.8399 66.1238L61.5385 58.3154C63.8268 57.3588 65.7811 55.7467 67.1554 53.682C68.5296 51.6172 69.2625 49.1922 69.2617 46.7119V12.5935C69.2617 9.25533 67.9364 6.05374 65.5769 3.69231C63.2175 1.33088 60.017 0.00282177 56.6789 0V0Z" fill="url(#paint1_linear_8525_16937)"/>
<path d="M59.4704 16.0551C60.7916 13.9899 60.1885 11.2447 58.1234 9.92344C56.0582 8.60219 53.3129 9.20526 51.9917 11.2704C50.6704 13.3356 51.2735 16.0809 53.3387 17.4021C55.4039 18.7233 58.1491 18.1203 59.4704 16.0551Z" fill="white"/>
<path d="M43.218 44.2844C42.8553 44.4418 42.5291 44.6725 42.2598 44.9619C41.9906 45.2513 41.784 45.5933 41.6531 45.9663C41.3384 46.78 40.8615 47.5211 40.2515 48.1447C39.6415 48.7683 38.911 49.2614 38.1045 49.5939C37.298 49.9265 36.4323 50.0916 35.56 50.0792C34.6878 50.0668 33.8271 49.8772 33.0304 49.5219C32.6795 49.3554 32.2983 49.2624 31.9102 49.2487C31.5221 49.235 31.1353 49.3008 30.7735 49.4421L30.4914 49.5592C29.9662 49.7768 29.5157 50.1427 29.1949 50.6121C28.8742 51.0815 28.6971 51.6342 28.6852 52.2026C28.6734 52.7711 28.8273 53.3306 29.1282 53.813C29.4291 54.2954 29.8639 54.6798 30.3797 54.9191C31.9449 55.6532 33.6461 56.0526 35.3746 56.0919C37.103 56.1311 38.8206 55.8094 40.4175 55.1471C42.0145 54.4849 43.4558 53.4967 44.6492 52.2459C45.8426 50.995 46.7619 49.5089 47.3484 47.8825C47.5473 47.3483 47.5859 46.7677 47.4595 46.2119C47.3331 45.6561 47.0472 45.1493 46.6369 44.7536C46.2265 44.358 45.7096 44.0908 45.1496 43.9847C44.5895 43.8787 44.0107 43.9384 43.4841 44.1566L43.218 44.2844Z" fill="white"/>
<defs>
<linearGradient id="paint0_linear_8525_16937" x1="6.16138" y1="60.7162" x2="103.018" y2="48.82" gradientUnits="userSpaceOnUse">
<stop offset="0.43" stop-color="#00256D"/>
<stop offset="0.88" stop-color="#0056D3"/>
</linearGradient>
<linearGradient id="paint1_linear_8525_16937" x1="-1.40763" y1="74.2515" x2="67.3668" y2="5.47703" gradientUnits="userSpaceOnUse">
<stop stop-color="#0056D3"/>
<stop offset="0.68" stop-color="#0695FF"/>
</linearGradient>
</defs>
</svg>
