<svg xmlns="http://www.w3.org/2000/svg" width="144.754" height="48" viewBox="0 0 144.754 48">
  <g id="Group_161" data-name="Group 161" transform="translate(-2316.623 67)">
    <g id="Group_160" data-name="Group 160" transform="translate(2244.623 -73)">
      <g id="Group_153" data-name="Group 153" transform="translate(71.769 6.287)">
        <path id="Combined_Shape" data-name="Combined Shape" d="M26.325,14.884a5.166,5.166,0,0,1-1.91-.328,2.387,2.387,0,0,1-1.568-2.748,4.736,4.736,0,0,1,.24-1.07,3.626,3.626,0,0,1,2.407-2.278,17.943,17.943,0,0,1,3.933-.741l.187-.02a9.024,9.024,0,0,0,1.474-.239,2.583,2.583,0,0,0,.765-.321.9.9,0,0,0,.436-.785.512.512,0,0,0-.316-.439,2.657,2.657,0,0,0-1.092-.231,3.27,3.27,0,0,0-1.078.193,1.24,1.24,0,0,0-.728.673.354.354,0,0,1-.375.257C27.955,6.8,27.268,6.8,26.6,6.8s-1.3,0-1.918.007h-.01c-.116,0-.185-.02-.217-.064s-.023-.143.013-.26a4.346,4.346,0,0,1,2.751-2.8,10.7,10.7,0,0,1,3.416-.64c.3-.014.592-.021.869-.021a11.36,11.36,0,0,1,3.1.383c1.931.542,2.557,1.573,2.158,3.558s-.827,4.015-1.24,5.971L35.514,13c-.09.424-.143.829.2,1.112.079.067.079.167,0,.307a.137.137,0,0,1-.131.069.61.61,0,0,1-.066,0,.5.5,0,0,0-.058,0H33.721c-.809,0-1.644,0-2.466,0h-.006a.285.285,0,0,1-.213-.055.224.224,0,0,1-.048-.168,4.971,4.971,0,0,0-.035-.55c-.009-.087-.018-.177-.026-.273l-.049.032.559-2.684H31.3c.011-.024.022-.05.035-.085a3.13,3.13,0,0,0,.145-.494l.055-.248.03-.124c.026-.1.026-.161,0-.194a.1.1,0,0,0-.084-.031.636.636,0,0,0-.164.03c-.386.112-.781.214-1.162.313-.233.06-.471.122-.706.186a4.255,4.255,0,0,0-1.255.506,1.008,1.008,0,0,0-.513.852.677.677,0,0,0,.38.578,1.37,1.37,0,0,0,.664.138c.064,0,.131,0,.206-.007h.2c.044,0,.081,0,.117,0a2.95,2.95,0,0,0,.7-.123l-.448,2.155a6.792,6.792,0,0,1-1.819.54A9.357,9.357,0,0,1,26.325,14.884Zm26.6-.208a8.865,8.865,0,0,1-2-.193,1.8,1.8,0,0,1-1.594-2.236c.006-.054.011-.107.016-.161a3.386,3.386,0,0,1,.047-.372c.139-.69.286-1.39.427-2.068L49.953,9h-.007c.054-.257.106-.517.157-.768.125-.617.253-1.253.4-1.878.039-.164.035-.264-.013-.325a.288.288,0,0,0-.239-.076c-.032,0-.067,0-.106,0-.1.008-.215.012-.339.012h-.045l-.383-.005H49.3l-.112,0h-.019c-.1,0-.153-.015-.182-.051a.2.2,0,0,1-.014-.167c.152-.684.3-1.394.438-2.11.036-.185.131-.221.281-.221h.194l.281,0h.254c.154,0,.278,0,.392.008h.038c.2,0,.277-.073.319-.29.086-.438.179-.883.269-1.313.1-.494.21-1,.306-1.5.048-.251.135-.323.388-.323h.013c.642.007,1.305.01,1.971.01s1.353,0,2.043-.01h.01c.137,0,.211.02.249.067s.041.121.011.251c-.1.436-.189.878-.277,1.306-.1.485-.2.982-.315,1.474-.03.131-.026.212.014.262s.108.068.234.068h.047c.152-.005.317-.008.52-.008h.689c.138,0,.251,0,.356,0h.02c.1,0,.164.018.2.058s.037.106.014.209c-.166.736-.3,1.393-.417,2.009-.043.232-.156.276-.35.276h-.023c-.134,0-.283,0-.467,0h-.615c-.2,0-.362,0-.515-.006h-.025c-.207,0-.287.07-.331.289-.157.779-.322,1.57-.481,2.335l0,.016c-.123.591-.25,1.2-.373,1.8a.81.81,0,0,0,.065.631.853.853,0,0,0,.592.3,4.359,4.359,0,0,0,.751.06c.119,0,.241,0,.372-.011h.039a.184.184,0,0,1,.151.048.211.211,0,0,1,.014.178c-.212,1-.417,1.991-.571,2.747a.228.228,0,0,1-.24.217c-.3.011-.612.028-.911.044C54.04,14.646,53.472,14.677,52.92,14.677ZM4.182,14.486h-.03c-.572-.008-1.179-.013-1.856-.013-.722,0-1.437,0-1.98.009H.292c-.123,0-.214-.011-.259-.066s-.043-.125-.016-.252C.8,10.436,1.555,6.806,2.185,3.747c.049-.234.113-.332.383-.332h.011c.555.007,1.136.01,1.776.01.548,0,1.135,0,1.847-.008h.01c.133,0,.206.02.243.068s.038.119.01.232c-.071.276-.125.548-.182.836-.025.125-.05.251-.076.379a.879.879,0,0,0,.316-.222c.028-.027.053-.052.081-.076a5.743,5.743,0,0,1,3.8-1.5A6.2,6.2,0,0,1,11.8,3.3a2.526,2.526,0,0,1,1.717,1.447c.062.123.113.195.188.195s.141-.049.266-.162a6.339,6.339,0,0,1,4.271-1.683,5.471,5.471,0,0,1,2.092.4,2.518,2.518,0,0,1,1.537,3.038c-.236,1.332-.522,2.687-.8,4l0,.012c-.114.541-.232,1.1-.345,1.65q-.077.375-.156.749v.005c-.089.422-.18.859-.264,1.288-.037.192-.109.25-.306.25-.635,0-1.385-.007-2.129-.007-.716,0-1.357,0-1.96.009H15.9c-.108,0-.174-.019-.208-.061s-.026-.147,0-.252l0-.016c.359-1.709.711-3.405,1.129-5.426l0-.023a4.323,4.323,0,0,0,.129-1.042c-.031-.688-.391-1.023-1.134-1.056q-.071,0-.141,0a1.763,1.763,0,0,0-1.69.951,3.627,3.627,0,0,0-.359,1.024q-.191.927-.385,1.853c-.253,1.214-.515,2.469-.762,3.706-.054.271-.146.346-.425.346h-.022c-.616-.007-1.261-.011-1.92-.011-.63,0-1.3,0-1.987.01H8.111c-.134,0-.207-.019-.244-.065s-.041-.12-.013-.248c.271-1.267.537-2.55.794-3.79q.17-.818.34-1.637a3.6,3.6,0,0,0,.1-1.192c-.074-.6-.428-.9-1.112-.943-.056,0-.113-.005-.167-.005a1.748,1.748,0,0,0-1.539.784,3.032,3.032,0,0,0-.456,1.142q-.185.9-.373,1.8c-.258,1.233-.524,2.508-.772,3.765C4.607,14.4,4.5,14.486,4.182,14.486Zm38.153,0h-.007c-.645-.006-1.325-.01-2.02-.01-.671,0-1.358,0-2.1.009H38.2c-.113,0-.177-.018-.211-.059s-.037-.107-.011-.228c.742-3.54,1.475-7.066,2.178-10.48.046-.229.134-.3.375-.3h.01c.611.005,1.232.008,1.845.008s1.235,0,1.848-.008h.011c.132,0,.2.02.241.066s.039.116.011.231c-.087.352-.158.71-.228,1.057l0,.005h0c-.03.148-.059.3-.09.444l.032.008.027.007.051-.068c.04-.053.081-.107.119-.162a4.37,4.37,0,0,1,3.877-1.872l.225,0a.172.172,0,0,1,.141.049c.032.044.013.111-.006.176-.006.022-.012.042-.016.062-.181.891-.422,2.065-.676,3.248a2.048,2.048,0,0,0-.03.241.743.743,0,0,1-.187.537.376.376,0,0,1-.256.083,1.521,1.521,0,0,1-.251-.03h-.005a1.539,1.539,0,0,0-.256-.03h-.047a6.3,6.3,0,0,0-1.122.1,2.545,2.545,0,0,0-2.056,1.785,13.831,13.831,0,0,0-.388,1.624c-.044.224-.089.456-.139.684-.186.853-.361,1.7-.519,2.512C42.652,14.392,42.592,14.484,42.334,14.484Z" transform="translate(86.917 19.869)" fill="#fff"/>
        <path id="Combined_Shape-2" data-name="Combined Shape" d="M22.594,15.357h-.034c-.6-.01-1.238-.015-1.886-.015s-1.285,0-1.984.014h-.018c-.142,0-.222-.022-.262-.072s-.044-.133-.011-.284c.209-.951.409-1.918.6-2.854q.11-.532.22-1.064.114-.548.227-1.1c.2-.947.4-1.926.606-2.889.028-.126.024-.2-.013-.245a.223.223,0,0,0-.183-.058l-.056,0c-.085,0-.176.007-.288.007h-.222l-.218,0-.16,0h-.021a.223.223,0,0,1-.183-.058.228.228,0,0,1-.017-.195c.151-.694.291-1.37.417-2.009a.262.262,0,0,1,.3-.252h.026c.062,0,.125,0,.188,0l.218,0h.189c.114,0,.207,0,.291.008l.056,0c.2,0,.29-.081.325-.3a6.112,6.112,0,0,1,.53-1.76A3.857,3.857,0,0,1,24.505.071L26.526,0,27.1.008h.287c.2,0,.392,0,.575-.007h.018A.187.187,0,0,1,28.13.05a.2.2,0,0,1,.014.165c-.192.894-.346,1.639-.487,2.345-.031.154-.1.216-.232.216a.568.568,0,0,1-.07,0,2.29,2.29,0,0,0-.278-.016,3.882,3.882,0,0,0-.651.063,1.365,1.365,0,0,0-1.11,1.34c.015.123.1.134.176.134h.075l.262,0,.541,0c.235,0,.431,0,.617-.007h.031c.111,0,.175.019.209.062a.258.258,0,0,1,.014.219c-.139.61-.271,1.245-.4,1.942-.041.217-.13.294-.341.294h-.024c-.081,0-.167,0-.264,0l-.3,0-.31,0c-.172,0-.313,0-.442-.012l-.071,0c-.269,0-.342.123-.394.381-.233,1.148-.476,2.316-.71,3.445l0,.008c-.294,1.414-.6,2.875-.886,4.316C23.032,15.268,22.924,15.357,22.594,15.357Zm-10.689,0c-.238,0-.319-.073-.332-.3l-.027-.363-.068-.724c-.01-.109-.019-.228-.028-.363-.011-.179-.087-.243-.291-.243-.826,0-1.566.006-2.261.006-.8,0-1.539,0-2.254-.008H6.637a.428.428,0,0,0-.438.289c-.135.274-.279.551-.418.818-.113.217-.229.439-.339.659a.322.322,0,0,1-.327.224c-.656,0-1.374,0-2.069-.005H.122a.252.252,0,0,1-.068-.014L0,15.318.6,14.29l0-.005c.327-.564.651-1.122.976-1.679C3.036,10.1,5.233,6.323,8.491.721l.9-.357c.695.008,1.408.011,2.181.011.7,0,1.442,0,2.257-.01h.011c.236,0,.372.049.414.307.719,4.37,1.5,9.071,2.39,14.373.02.117.023.2-.018.248s-.112.062-.257.062h-.018c-.751-.007-1.5-.01-2.218-.01-.751,0-1.5,0-2.222.011H11.9ZM9.629,10.209c.459,0,.863,0,1.237.006h.012a.274.274,0,0,0,.212-.061.238.238,0,0,0,.034-.193c-.033-.287-.062-.579-.089-.862l-.025-.26-.369-3.684-.031,0-.033,0-.7,1.349c-.593,1.14-1.206,2.32-1.817,3.483-.046.089-.059.145-.039.178s.081.043.176.043h.018Q8.921,10.21,9.629,10.209Zm31.479,5.146h-.014c-.661-.007-1.334-.01-2.057-.01-.651,0-1.325,0-2.06.008h-.01c-.12,0-.186-.018-.22-.06s-.038-.109-.014-.219c.812-3.871,1.524-7.3,2.177-10.476.054-.266.168-.311.4-.311H43.39c.135,0,.213.022.252.07s.045.13.015.27c-.163.758-.338,1.587-.551,2.61l-.541,2.611-.23,1.1c-.28,1.342-.569,2.726-.843,4.087C41.442,15.286,41.36,15.355,41.108,15.355Zm-14.364,0c-.13,0-.2-.019-.237-.064s-.04-.119-.011-.255c.786-3.737,1.494-7.143,2.164-10.414.053-.26.146-.335.413-.335h.015c.566.006,1.164.01,1.775.01.589,0,1.193,0,1.846-.009h.019c.151,0,.229.021.269.072s.04.131.008.256c-.091.348-.16.7-.228,1.044v0c-.028.141-.055.282-.085.422l.028.009.028.009.114-.151c.019-.025.037-.05.055-.076l4.1-1.871a.174.174,0,0,1,.142.049c.033.044.014.111,0,.177-.006.02-.011.04-.015.059-.169.824-.342,1.658-.51,2.465l-.128.616c-.015.073-.031.146-.047.218-.04.183-.081.369-.111.552s-.1.236-.26.236l-.063,0c-.243-.022-.464-.032-.677-.032a5.356,5.356,0,0,0-.888.07,2.512,2.512,0,0,0-2.215,1.877c-.283.985-.479,1.989-.67,2.96-.1.533-.212,1.083-.333,1.624l0,.014c-.1.431-.1.457-.51.46H28.581c-.729,0-1.291,0-1.823.009ZM39.515,3.183h0c-.122,0-.193-.021-.231-.067a.279.279,0,0,1-.016-.235c.169-.761.342-1.59.544-2.609L40.143,0c.659,0,1.363.007,2.091.007C42.9.007,43.6,0,44.328,0h.006c.121,0,.184.017.217.057a.237.237,0,0,1,.014.2c-.2.883-.381,1.772-.55,2.642-.041.211-.129.283-.349.283h-.018c-.268,0-.56-.006-.92-.006H40.44c-.356,0-.644,0-.908.007Z" transform="translate(42.826 18.998)" fill="#fff"/>
      </g>
      <g id="Group" transform="translate(72 6)">
        <path id="Path_2" data-name="Path 2" d="M11.474,0,0,3.415l3.724,10.6Z" transform="translate(34.12 19.869)" fill="#fff"/>
        <path id="Path_3" data-name="Path 3" d="M9.551,0l2.892,10.294H0Z" transform="translate(2.125 3.065)" fill="#fff"/>
        <path id="Path_4" data-name="Path 4" d="M0,9.279l2.075,7.953L15.516,2.176l-4.933-.44L8.43,2.565,5.1,0Z" transform="translate(17.337 4.948)" fill="#fff"/>
        <path id="Path_5" data-name="Path 5" d="M7.824,0,8.37,5.195,9.941,8.06,0,7.191Z" transform="translate(7.396 16.094)" fill="rgba(255,255,255,0.6)"/>
        <path id="Path_6" data-name="Path 6" d="M9.521,0,0,11.244,9.079,9.381V4.336Z" transform="translate(22.731 11.757)" fill="#fff"/>
        <path id="Path_7" data-name="Path 7" d="M1.659,0,0,9.946l2.837-.871H6.349Z" transform="translate(33.508 9.923)" fill="rgba(255,255,255,0.6)"/>
        <path id="Path_8" data-name="Path 8" d="M3.34,9.923,6.317,2.186,0,0Z" transform="translate(13.997)" fill="#fff"/>
        <path id="Combined_Shape-3" data-name="Combined Shape" d="M22.731,21.726l-2.417-6.989,8.68,12.315-4.34,4.4ZM0,0H11.845L5.354,6.678Z" transform="translate(0 15.502)" fill="#fff"/>
        <path id="Path_10" data-name="Path 10" d="M9.554,0,0,2.278,12.055,8.711Z" transform="translate(22.065 24.399)" fill="#fff"/>
        <path id="Path_12" data-name="Path 12" d="M8.166,0,0,8.854,4.083,9.4Z" transform="translate(27.491 38.598)" fill="rgba(255,255,255,0.6)"/>
        <path id="Path_13" data-name="Path 13" d="M7.752,12.621l4.767-5L0,0,4.34,5.536Z" transform="translate(22.065 28.819)" fill="#fff"/>
      </g>
    </g>
    <g id="Group_159" data-name="Group 159" transform="translate(298.623 8.406)">
      <path id="Union_1" data-name="Union 1" d="M1.249,9.136,3.172,0H42.284L39.169,17.97H3.331l-4.915,3.988Z" transform="translate(2120.47 -75.406)" fill="#fff"/>
      <text id="Beta" transform="translate(2126.612 -62.406)" fill="#f0542d" font-size="12" font-family="Poppins-MediumItalic, Poppins" font-weight="500" font-style="italic"><tspan x="0" y="0">Beta</tspan></text>
    </g>
  </g>
</svg>
