<svg xmlns="http://www.w3.org/2000/svg" version="1.1" xmlns:xlink="http://www.w3.org/1999/xlink" xmlns:svgjs="http://svgjs.dev/svgjs" width="1500" height="541" viewBox="0 0 1500 541"><g transform="matrix(1,0,0,1,-0.9084522071641459,0.36401808872892616)"><svg viewBox="0 0 396 143" data-background-color="#ffffff" preserveAspectRatio="xMidYMid meet" height="541" width="1500" xmlns="http://www.w3.org/2000/svg" xmlns:xlink="http://www.w3.org/1999/xlink"><g id="tight-bounds" transform="matrix(1,0,0,1,0.24008861730862918,-0.09605714732791171)"><svg viewBox="0 0 395.52 143.19227634638196" height="143.19227634638196" width="395.52"><g><svg viewBox="0 0 395.52 143.19227634638196" height="143.19227634638196" width="395.52"><g><svg viewBox="0 0 395.52 143.19227634638196" height="143.19227634638196" width="395.52"><g id="textblocktransform"><svg viewBox="0 0 395.52 143.19227634638196" height="143.19227634638196" width="395.52" id="textblock"><g><svg viewBox="0 0 395.52 143.19227634638196" height="143.19227634638196" width="395.52"><path d="M394.594 30.712C392.735 15.849 387.435 11.717 387.435 11.717 371.165-3.593 350.86-0.293 332.619 1.907 300.414 1.996 268.339 5.266 236.208 7.02 168.767 7.287 100.749 2.888 33.643 13.738 27.339 17.067-6.54 14.392 1.121 32.615 3.129 40.195 10.456 48.607 10.232 55.563 11.236 56.782 12.631 53.988 13.226 55.742 15.309 60.468 18.711 58.239 21.501 61.033 17.614 68.495 20.403 74.707 23.062 81.218 18.377 82.912 12.371 82.109 9.675 87.728 9.396 91.8 7.89 91.027 6.235 90.849 5.026 90.73 2.59 91.176 2.999 92.454 4.394 96.824-1.594 99.351 2.162 103.631-0.422 108.269 3.948 112.282 3.353 117.306 3.278 118.316 3.687 119.178 4.338 119.416 7.22 120.694 3.018 123.192 3.464 125.897 33.029 144.387 65.104 131.604 95.394 140.106 103.259 134.161 97.346 142.217 100.489 140.968 102.943 139.511 104.728 145.546 107.499 142.127 107.927 141.146 107.276 138.828 108.8 139.274 109.6 139.511 110.307 139.452 110.418 138.085 110.586 136.033 109.117 137.312 108.726 136.241 112.947 130.831 111.906 143.703 115.866 143.168 115.68 141.592 114.528 139.333 116.889 139.63 119.232 137.371 119.306 135.498 121.389 140.582 121.463 141.681 121.835 142.454 122.43 142.989 128.938 137.46 135.409 144.951 142.233 142.454 146.417 139.72 150.433 143.941 154.672 142.9 156.16 142.068 157.666 140.582 159.098 143.079 176.632 143.614 195.319 141.384 211.943 143.168 256.364 139.838 303.836 144.535 350.674 140.136 361.719 138.441 373.192 136.033 383.958 134.101 383.958 134.101 392.679 128.81 392.679 105.029S394.538 84.22 394.817 65.284C395.096 46.348 396.398 45.575 394.538 30.712Z" opacity="1" fill="#000000" data-fill-palette-color="tertiary"></path><g transform="matrix(1,0,0,1,55.76832,26.230666666666668)"><svg width="283.98335999999995" viewBox="0.25 -39.65 126.44 40.4" height="90.73094301304863" data-palette-color="#ffffff"><path d="M14-5L16.15-1.2Q13.7 0.75 10.4 0.75L10.4 0.75Q6.95 0.75 5.15-1.23 3.35-3.2 3.35-6.6L3.35-6.6 3.35-22 0.25-22 0.25-26.45 3.35-26.45 3.35-32.3 9.5-33.05 9.5-26.45 14.5-26.45 13.9-22 9.5-22 9.5-6.6Q9.5-4.2 11.55-4.2L11.55-4.2Q12.2-4.2 12.7-4.38 13.2-4.55 14-5L14-5ZM18.7-26.45L24.85-26.45 24.85 0 18.7 0 18.7-26.45ZM21.75-39.65Q23.4-39.65 24.42-38.6 25.45-37.55 25.45-35.9L25.45-35.9Q25.45-34.3 24.42-33.25 23.4-32.2 21.75-32.2L21.75-32.2Q20.1-32.2 19.07-33.25 18.05-34.3 18.05-35.9L18.05-35.9Q18.05-37.55 19.07-38.6 20.1-39.65 21.75-39.65L21.75-39.65ZM54.2-27.15Q56.85-27.15 58.45-25.1 60.05-23.05 60.05-19.6L60.05-19.6 60.05 0 54 0 54-18.95Q54-20.85 53.5-21.68 53-22.5 52.05-22.5L52.05-22.5Q50.1-22.5 48.3-18.8L48.3-18.8 48.3 0 42.3 0 42.3-18.95Q42.3-22.5 40.4-22.5L40.4-22.5Q38.35-22.5 36.6-18.8L36.6-18.8 36.6 0 30.55 0 30.55-26.45 35.9-26.45 36.3-23.05Q38.9-27.15 42.55-27.15L42.55-27.15Q44.4-27.15 45.75-26 47.1-24.85 47.8-22.75L47.8-22.75Q50.45-27.15 54.2-27.15L54.2-27.15ZM77.69-27.15Q81.54-27.15 83.59-23.65 85.64-20.15 85.64-13.25L85.64-13.25Q85.64-6.75 83.34-3 81.04 0.75 77.04 0.75L77.04 0.75Q75.29 0.75 73.84-0.13 72.39-1 71.34-2.55L71.34-2.55 70.99 0 65.54 0 65.54-37 71.69-37.65 71.69-23.6Q72.74-25.3 74.27-26.23 75.79-27.15 77.69-27.15L77.69-27.15ZM75.39-3.9Q77.24-3.9 78.27-6 79.29-8.1 79.29-13.25L79.29-13.25Q79.29-18.6 78.37-20.58 77.44-22.55 75.74-22.55L75.74-22.55Q74.59-22.55 73.54-21.6 72.49-20.65 71.69-19.1L71.69-19.1 71.69-6.7Q72.34-5.45 73.32-4.67 74.29-3.9 75.39-3.9L75.39-3.9ZM109.09-13.85Q109.09-13.4 108.94-11.3L108.94-11.3 95.29-11.3Q95.49-7.2 96.72-5.58 97.94-3.95 100.19-3.95L100.19-3.95Q101.74-3.95 102.99-4.48 104.24-5 105.69-6.15L105.69-6.15 108.24-2.65Q104.74 0.75 99.84 0.75L99.84 0.75Q94.64 0.75 91.87-2.85 89.09-6.45 89.09-13L89.09-13Q89.09-19.55 91.74-23.35 94.39-27.15 99.24-27.15L99.24-27.15Q103.89-27.15 106.49-23.78 109.09-20.4 109.09-13.85L109.09-13.85ZM103.09-15.3L103.09-15.65Q103.09-19.4 102.19-21.13 101.29-22.85 99.29-22.85L99.29-22.85Q97.44-22.85 96.47-21.18 95.49-19.5 95.29-15.3L95.29-15.3 103.09-15.3ZM124.54-5L126.69-1.2Q124.24 0.75 120.94 0.75L120.94 0.75Q117.49 0.75 115.69-1.23 113.89-3.2 113.89-6.6L113.89-6.6 113.89-22 110.79-22 110.79-26.45 113.89-26.45 113.89-32.3 120.04-33.05 120.04-26.45 125.04-26.45 124.44-22 120.04-22 120.04-6.6Q120.04-4.2 122.09-4.2L122.09-4.2Q122.74-4.2 123.24-4.38 123.74-4.55 124.54-5L124.54-5Z" opacity="1" transform="matrix(1,0,0,1,0,0)" fill="#ffffff" class="wordmark-text-0" data-fill-palette-color="quaternary" id="text-0"></path></svg></g></svg></g></svg></g></svg></g><g></g></svg></g><defs></defs></svg><rect width="395.52" height="143.19227634638196" fill="none" stroke="none" visibility="hidden"></rect></g></svg></g></svg>