<svg xmlns="http://www.w3.org/2000/svg" version="1.1" xmlns:xlink="http://www.w3.org/1999/xlink" xmlns:svgjs="http://svgjs.dev/svgjs" width="128" height="128" viewBox="0 0 128 128"><g transform="matrix(0.3800738007380074,0,0,0.3800738007380074,39.56831264186842,12.33387096774193)"><svg viewBox="0 0 73 155" data-background-color="#ffffff" preserveAspectRatio="xMidYMid meet" height="271" width="128" xmlns="http://www.w3.org/2000/svg" xmlns:xlink="http://www.w3.org/1999/xlink"><g id="tight-bounds" transform="matrix(1,0,0,1,0.16050295857988317,0.25)"><svg viewBox="0 0 72.67899408284023 154.5" height="154.5" width="72.67899408284023"><g><svg viewBox="0 0 72.67899408284023 154.5" height="154.5" width="72.67899408284023"><g><svg viewBox="0 0 72.67899408284023 154.5" height="154.5" width="72.67899408284023"><g id="textblocktransform"><svg viewBox="0 0 72.67899408284023 154.5" height="154.5" width="72.67899408284023" id="textblock"><g><svg viewBox="0 0 72.67899408284023 154.5" height="154.5" width="72.67899408284023"><g transform="matrix(1,0,0,1,0,0)"><svg width="72.67899408284023" viewBox="0.25 -33.05 15.899999999999999 33.8" height="154.5" data-palette-color="#000000"><path d="M14-5L16.15-1.2Q13.7 0.75 10.4 0.75L10.4 0.75Q6.95 0.75 5.15-1.23 3.35-3.2 3.35-6.6L3.35-6.6 3.35-22 0.25-22 0.25-26.45 3.35-26.45 3.35-32.3 9.5-33.05 9.5-26.45 14.5-26.45 13.9-22 9.5-22 9.5-6.6Q9.5-4.2 11.55-4.2L11.55-4.2Q12.2-4.2 12.7-4.38 13.2-4.55 14-5L14-5Z" opacity="1" transform="matrix(1,0,0,1,0,0)" fill="#ffffff" class="wordmark-text-0" data-fill-palette-color="primary" id="text-0"></path></svg></g></svg></g></svg></g></svg></g><g></g></svg></g><defs></defs></svg><rect width="72.67899408284023" height="154.5" fill="none" stroke="none" visibility="hidden"></rect></g></svg></g></svg>